<svg width="103" height="32" viewBox="0 0 103 32" fill="none" xmlns="http://www.w3.org/2000/svg">
<path d="M19.3224 13H16.6799L16.6799 20.08L19.3199 18.57L19.3224 13Z" fill="#F8F9FA"/>
<path d="M15.3199 14.5H12.6799V20.86L14.0021 21.6079L15.3199 20.86V14.5Z" fill="#F8F9FA"/>
<path d="M8.67993 16H11.3199V20.08L8.67993 18.57V16Z" fill="#F8F9FA"/>
<path d="M28 24V8L14 0L0 8V29.04L5.2 31.9998V11.0177L14 5.98911L22.8 11.0177V20.9823L14 26.0109L10 23.7252V29.7143L14 32L28 24Z" fill="#83D0AF"/>
<path d="M43.44 12.6C44.9867 12.6 46.2 13.1 47.08 14.1C47.96 15.0867 48.4 16.36 48.4 17.92C48.4 19.4667 47.9533 20.74 47.06 21.74C46.18 22.74 44.9733 23.24 43.44 23.24C42.7067 23.24 42.0067 23.06 41.34 22.7C40.6867 22.34 40.18 21.8467 39.82 21.22V27.48H37.4V12.84H39.82V14.62C40.18 13.9933 40.6867 13.5 41.34 13.14C42.0067 12.78 42.7067 12.6 43.44 12.6ZM42.96 21.26C43.9067 21.26 44.64 20.9467 45.16 20.32C45.6933 19.68 45.96 18.88 45.96 17.92C45.96 16.96 45.6933 16.1667 45.16 15.54C44.64 14.9 43.9067 14.58 42.96 14.58C42 14.58 41.2333 14.8933 40.66 15.52C40.0867 16.1467 39.8 16.9467 39.8 17.92C39.8 18.8933 40.0867 19.6933 40.66 20.32C41.2333 20.9467 42 21.26 42.96 21.26ZM55.8645 12.6C55.9979 12.6 56.2445 12.62 56.6045 12.66V15.2C56.3112 15.0933 55.9579 15.04 55.5445 15.04C55.0779 15.04 54.6645 15.1733 54.3045 15.44C53.9579 15.6933 53.6912 16.0333 53.5045 16.46C53.3179 16.8733 53.1779 17.3 53.0845 17.74C53.0045 18.1667 52.9645 18.5933 52.9645 19.02V23H50.5445V12.84H52.9045V15.62C53.0379 14.78 53.3645 14.0667 53.8845 13.48C54.4045 12.8933 55.0645 12.6 55.8645 12.6ZM67.6641 17.48C67.6641 17.88 67.6441 18.1733 67.6041 18.36H59.7841C59.8907 19.3067 60.2374 20.0333 60.8241 20.54C61.4107 21.0333 62.1841 21.28 63.1441 21.28C64.2641 21.28 65.1574 21.06 65.8241 20.62L66.7641 22.16C65.6841 22.88 64.4107 23.24 62.9441 23.24C61.3174 23.24 59.9841 22.76 58.9441 21.8C57.9174 20.84 57.4041 19.5533 57.4041 17.94C57.4041 16.3533 57.8907 15.0667 58.8641 14.08C59.8507 13.0933 61.1307 12.6 62.7041 12.6C64.1974 12.6 65.3974 13.0467 66.3041 13.94C67.2107 14.82 67.6641 16 67.6641 17.48ZM62.6441 14.48C61.8974 14.48 61.2774 14.7 60.7841 15.14C60.3041 15.5667 59.9974 16.1533 59.8641 16.9H65.2641C65.2107 16.14 64.9507 15.5467 64.4841 15.12C64.0174 14.6933 63.4041 14.48 62.6441 14.48ZM77.647 14.3L72.147 21.1H77.847V23H68.827V21.56L74.307 14.74H69.127V12.84H77.647V14.3ZM85.6014 12.6C86.8281 12.6 87.7681 13.0467 88.4214 13.94C89.0881 14.82 89.4214 15.8933 89.4214 17.16V23H86.9814V17.26C86.9814 16.5133 86.8014 15.8867 86.4414 15.38C86.0814 14.86 85.5414 14.6 84.8214 14.6C83.9947 14.6 83.3614 14.92 82.9214 15.56C82.4814 16.1867 82.2614 16.9333 82.2614 17.8V23H79.8414V12.84H82.2614V14.64C82.5281 14 82.9681 13.5 83.5814 13.14C84.2081 12.78 84.8814 12.6 85.6014 12.6ZM96.228 12.6C97.668 12.6 98.828 13.0133 99.708 13.84C100.601 14.6667 101.048 15.7933 101.048 17.22V23H98.608V21.56C98.2346 22.1067 97.7213 22.5267 97.068 22.82C96.428 23.1 95.7546 23.24 95.048 23.24C94.0213 23.24 93.1346 22.96 92.388 22.4C91.6413 21.84 91.268 21.06 91.268 20.06C91.268 19.02 91.6746 18.2267 92.488 17.68C93.3146 17.1333 94.2746 16.86 95.368 16.86C96.648 16.86 97.7346 17.2067 98.628 17.9V17.1C98.628 16.3 98.3746 15.6733 97.868 15.22C97.3613 14.7533 96.708 14.52 95.908 14.52C94.6813 14.52 93.648 14.8533 92.808 15.52L91.988 13.92C92.5213 13.4933 93.1746 13.1667 93.948 12.94C94.7346 12.7133 95.4946 12.6 96.228 12.6ZM95.768 21.48C96.9546 21.48 97.9013 21.0267 98.608 20.12L98.628 19.08C97.8413 18.5733 96.968 18.32 96.008 18.32C95.4213 18.32 94.8946 18.4533 94.428 18.72C93.9613 18.9867 93.728 19.3867 93.728 19.92C93.728 20.4267 93.9346 20.8133 94.348 21.08C94.7613 21.3467 95.2346 21.48 95.768 21.48Z" fill="#F8F9FA"/>
</svg>
